<svg width="22" height="22" viewBox="0 0 22 22" fill="none" xmlns="http://www.w3.org/2000/svg">
  <g clip-path="url(#a)">
    <path
      d="M18.108 18.616H2.559a1.797 1.797 0 0 1-1.794-1.794V4.662c0-.99.805-1.795 1.794-1.795h15.549c.99 0 1.794.805 1.794 1.794v3.96a1.54 1.54 0 0 1 1.011 1.445v1.353c0 .663-.422 1.23-1.012 1.445v3.959c0 .988-.804 1.793-1.793 1.793ZM2.559 3.912a.75.75 0 0 0-.749.75v12.16c0 .413.336.75.749.75h15.549a.75.75 0 0 0 .748-.75v-3.866H13.98a1.54 1.54 0 0 1-1.538-1.537v-1.352c0-.849.69-1.539 1.538-1.539h4.877V4.661a.75.75 0 0 0-.75-.749H2.56Zm11.42 5.66a.494.494 0 0 0-.492.494v1.352c0 .272.221.492.493.492h5.395a.493.493 0 0 0 .493-.492v-1.353a.493.493 0 0 0-.492-.492H13.98Z"
      fill="#969696" />
  </g>
  <defs>
    <clipPath id="a">
      <path fill="#fff" transform="translate(.387 .29)" d="M0 0h20.903v20.903H0z" />
    </clipPath>
  </defs>
</svg>